{"title":"The Hunger Games Mockingjay Part1 Cam XviD MP3 Idiocracy","uid":11593424,"size":801380352,"categoryP":"video","categoryS":"movies","magnet":"?xt=urn:btih:df5854294e1beb1188677fea38c34662fe02da82&amp;dn=The+Hunger+Games+Mockingjay+Part1+Cam+XviD+MP3+Idiocracy&amp;tr=udp%3A%2F%2Ftracker.openbittorrent.com%3A80&amp;tr=udp%3A%2F%2Fopen.demonii.com%3A1337&amp;tr=udp%3A%2F%2Ftracker.coppersurfer.tk%3A6969&amp;tr=udp%3A%2F%2Fexodus.desync.com%3A6969","seeders":8,"leechers":2,"uploader":"Satafakap","files":-1,"time":1417251634,"description":"Synopsis / Plot\n\nWhen Katniss destroys the games, she goes to District 13 after District 12 is destroyed. She meets President Coin who convinces her to be the symbol of rebellion, while trying to save Peeta from the Capitol.\n\nDirector: Francis Lawrence\nWriters: Peter Craig (screenplay), Danny Strong (screenplay)\nStars: Jennifer Lawrence, Josh Hutcherson, Liam Hemsworth \n &lt;a href=&quot;\nhttp://www.imdb.com/title/tt1951265/&quot; rel=&quot;nofollow&quot; target=&quot;_NEW&quot;&gt;\nhttp://www.imdb.com/title/tt1951265/&lt;/a&gt;\n\nGeneral\n\nComplete name       : The.Hunger.Games.Mockingjay.Part1.2014.CAM.XviD.MP3-Idiocracy.avi\nFormat              : AVI\nFormat/Info         : Audio Video Interleave\nFile size           : 757 MiB\nDuration            : 1h 51mn\nOverall bit rate    : 952 Kbps\nWriting application : VirtualDubMod 1.5.10.3 | www.virtualdub-fr.org\nWriting library     : VirtualDubMod build 2550/release\nSource              : The.Hunger.Games.Mockingjay.Part1.2014.CAM.akoam.com - Audio\n                      g0l0dny3.1gry.s0jka.chast.i.700._5Fenotbox.com (russian) - Video \nSample              : Yes\n\nVideo\n\nID                                       : 0\nFormat                                   : MPEG-4 Visual\nFormat profile                           : Advanced Simple@L5\nFormat settings, BVOP                    : 4\nFormat settings, QPel                    : No\nFormat settings, GMC                     : No warppoints\nFormat settings, Matrix                  : Custom\nCodec ID                                 : XVID\nCodec ID/Hint                            : XviD\nDuration                                 : 1h 51mn\nBit rate                                 : 748 Kbps\nWidth                                    : 720 pixels\nHeight                                   : 320 pixels\nDisplay aspect ratio                     : 2.25:1\nFrame rate                               : 29.970 fps\nColor space                              : YUV\nChroma subsampling                       : 4:2:0\nBit depth                                : 8 bits\nScan type                                : Progressive\nCompression mode                         : Lossy\nBits/(Pixel*Frame)                       : 0.108\nStream size                              : 595 MiB (79%)\nWriting library                          : XviD 1.2.1 (UTC 2008-12-04)\n\nAudio\n\nID                                       : 1\nFormat                                   : MPEG Audio\nFormat version                           : Version 1\nFormat profile                           : Layer 3\nCodec ID                                 : 55\nCodec ID/Hint                            : MP3\nDuration                                 : 1h 51mn\nBit rate mode                            : Constant\nBit rate                                 : 192 Kbps\nChannel(s)                               : 2 channels\nSampling rate                            : 44.1 KHz\nCompression mode                         : Lossy\nStream size                              : 153 MiB (20%)\nAlignment                                : Split accross interleaves\nInterleave, duration                     : 33 ms (1.00 video frame)\nInterleave, preload duration             : 500 ms\nWriting library                          : LAME3.99r\nEncoding settings                        : -m s -V 4 -q 0 -lowpass 18.6 -b 192\n\n\nScreenshots:\n &lt;a href=&quot;\nhttp://i.imgur.com/uR1SSGr.jpg&quot; rel=&quot;nofollow&quot; target=&quot;_NEW&quot;&gt;\nhttp://i.imgur.com/uR1SSGr.jpg&lt;/a&gt;\n &lt;a href=&quot;\nhttp://i.imgur.com/25579ky.jpg&quot; rel=&quot;nofollow&quot; target=&quot;_NEW&quot;&gt;\nhttp://i.imgur.com/25579ky.jpg&lt;/a&gt;\n &lt;a href=&quot;\nhttp://i.imgur.com/TwqD6WA.jpg&quot; rel=&quot;nofollow&quot; target=&quot;_NEW&quot;&gt;\nhttp://i.imgur.com/TwqD6WA.jpg&lt;/a&gt;\n &lt;a href=&quot;\nhttp://i.imgur.com/xZ0lS7B.jpg&quot; rel=&quot;nofollow&quot; target=&quot;_NEW&quot;&gt;\nhttp://i.imgur.com/xZ0lS7B.jpg&lt;/a&gt;\n &lt;a href=&quot;\nhttp://i.imgur.com/gznRld2.jpg&quot; rel=&quot;nofollow&quot; target=&quot;_NEW&quot;&gt;\nhttp://i.imgur.com/gznRld2.jpg&lt;/a&gt;","torrent":{"xt":"urn:btih:df5854294e1beb1188677fea38c34662fe02da82","amp;dn":"The+Hunger+Games+Mockingjay+Part1+Cam+XviD+MP3+Idiocracy","amp;tr":["udp%3A%2F%2Ftracker.openbittorrent.com%3A80","udp%3A%2F%2Fopen.demonii.com%3A1337","udp%3A%2F%2Ftracker.coppersurfer.tk%3A6969","udp%3A%2F%2Fexodus.desync.com%3A6969"],"infoHash":"df5854294e1beb1188677fea38c34662fe02da82","infoHashBuffer":{"type":"Buffer","data":[223,88,84,41,78,27,235,17,136,103,127,234,56,195,70,98,254,2,218,130]},"announce":[],"urlList":[]}}